# xmcd
#
# Track frame offsets: 
#        150
#        16890
#        28756
#        45531
#        61727
#        76719
#        87035
#        101834
#        117475
#        131516
#        144308
#        159085
#        173666
#        192733
#        208343
#        216689
#
# Disc length: 3339 seconds
#
# Revision: 0
# Processed by: cddbd v1.5.2PL0 Copyright (c) Steve Scherf et al.
# Submitted via: ExactAudioCopyFreeDBPlugin 1.0
#
DISCID=db0d0910
DTITLE=Plava Trava Zaborava - Dance All Night
DYEAR=2003
DGENRE=Country
TTITLE0=Ghost Riders In The Aky
TTITLE1=Dance All Night
TTITLE2=Downtown Girl
TTITLE3=Making Believe
TTITLE4=Forever And Ever
TTITLE5=Case On The Barrelhead
TTITLE6=Jackson
TTITLE7=Lovesick Blues
TTITLE8=C'est la vie
TTITLE9=Lonesome Me
TTITLE10=The Gates Of Regret
TTITLE11=I Slipped Your Mind
TTITLE12=Mahogany Eyes
TTITLE13=Lord Have Mercy On Me
TTITLE14=Lost And I'll Never Find The Way
TTITLE15=She'll Be Coming
EXTD=
EXTT0=
EXTT1=
EXTT2=
EXTT3=
EXTT4=
EXTT5=
EXTT6=
EXTT7=
EXTT8=
EXTT9=
EXTT10=
EXTT11=
EXTT12=
EXTT13=
EXTT14=
EXTT15=
PLAYORDER=
